<?xml version="1.0" encoding="UTF-8"?>
<svg xmlns="http://www.w3.org/2000/svg" width="256" height="256" viewBox="0 0 256 256" role="img" aria-labelledby="title desc">
	<title id="title">OneClickContent Titles icon</title>
	<desc id="desc">A document with headline lines, sparkles, and an orange checkmark badge.</desc>
	<defs>
		<filter id="soft-shadow" x="-20%" y="-20%" width="140%" height="140%" color-interpolation-filters="sRGB">
			<feDropShadow dx="0" dy="7" stdDeviation="7" flood-color="#1f2933" flood-opacity="0.18"/>
		</filter>
		<linearGradient id="page-bg" x1="34" y1="37" x2="206" y2="219" gradientUnits="userSpaceOnUse">
			<stop offset="0" stop-color="#ffffff"/>
			<stop offset="1" stop-color="#f6f7f7"/>
		</linearGradient>
	</defs>
	<rect x="10" y="10" width="236" height="236" rx="42" fill="url(#page-bg)" filter="url(#soft-shadow)"/>
	<path d="M51 52h73l38 38v107H51z" fill="#ffffff" stroke="#263240" stroke-width="11" stroke-linejoin="round"/>
	<path d="M125 53v34h34" fill="none" stroke="#e8750c" stroke-width="11" stroke-linecap="round" stroke-linejoin="round"/>
	<path d="M125 53l34 34" fill="none" stroke="#e8750c" stroke-width="11" stroke-linecap="round" stroke-linejoin="round"/>
	<path d="M66 111h68" fill="none" stroke="#e8750c" stroke-width="11" stroke-linecap="round"/>
	<path d="M66 137h61" fill="none" stroke="#263240" stroke-width="10" stroke-linecap="round"/>
	<path d="M66 163h53" fill="none" stroke="#263240" stroke-width="10" stroke-linecap="round"/>
	<circle cx="170" cy="172" r="38" fill="#e8750c"/>
	<path d="M150 172l13 13 28-29" fill="none" stroke="#ffffff" stroke-width="11" stroke-linecap="round" stroke-linejoin="round"/>
	<path d="M176 45l5 12 12 5-12 5-5 13-5-13-12-5 12-5z" fill="#e8750c"/>
	<path d="M199 77l7 16 16 7-16 7-7 17-7-17-16-7 16-7z" fill="#e8750c"/>
</svg>
